<svg width="256" height="256" viewBox="0 0 256 256" fill="none" xmlns="http://www.w3.org/2000/svg">
<rect width="256" height="256" rx="10" fill="#101823"/>
<path d="M85.2491 88.247C85.2491 85.4855 87.4877 83.2469 90.2491 83.2469H107.447C132.024 83.2469 151.947 103.17 151.947 127.747V127.747V127.747C151.947 152.324 132.024 172.247 107.447 172.247H90.2491C87.4877 172.247 85.2491 170.008 85.2491 167.247V146.922V106.04V88.247Z" fill="#5546FF"/>
<path d="M151.947 127.747V127.747C151.947 103.17 132.024 83.2469 107.447 83.2469H90.2491C87.4877 83.2469 85.2491 85.4855 85.2491 88.247V106.04M151.947 127.747V127.747C151.947 152.324 132.024 172.247 107.447 172.247H90.2491C87.4877 172.247 85.2491 170.008 85.2491 167.247V146.922M151.947 127.747L178.995 161.132C184.691 168.163 193.256 172.247 202.305 172.247H236M85.2491 146.922H50.4177M85.2491 146.922V106.04M85.2491 106.04H50.4177" stroke="#5546FF" stroke-width="12" stroke-linecap="round" stroke-linejoin="round"/>
</svg>
